<svg width="24" height="24" viewBox="0 0 24 24" fill="none" xmlns="http://www.w3.org/2000/svg">
<path d="M16 22.75C15.59 22.75 15.25 22.41 15.25 22V20.75H12.75V22C12.75 22.41 12.41 22.75 12 22.75C11.59 22.75 11.25 22.41 11.25 22V20.75H8.75V22C8.75 22.41 8.41 22.75 8 22.75C7.59 22.75 7.25 22.41 7.25 22V20.75H6C4.48 20.75 3.25 19.52 3.25 18V16.75H2C1.59 16.75 1.25 16.41 1.25 16C1.25 15.59 1.59 15.25 2 15.25H3.25V12.75H2C1.59 12.75 1.25 12.41 1.25 12C1.25 11.59 1.59 11.25 2 11.25H3.25V8.75H2C1.59 8.75 1.25 8.41 1.25 8C1.25 7.59 1.59 7.25 2 7.25H3.25V6C3.25 4.48 4.48 3.25 6 3.25H7.25V2C7.25 1.59 7.59 1.25 8 1.25C8.41 1.25 8.75 1.59 8.75 2V3.25H11.25V2C11.25 1.59 11.59 1.25 12 1.25C12.41 1.25 12.75 1.59 12.75 2V3.25H15.25V2C15.25 1.59 15.59 1.25 16 1.25C16.41 1.25 16.75 1.59 16.75 2V3.25H18C19.52 3.25 20.75 4.48 20.75 6V7.25H22C22.41 7.25 22.75 7.59 22.75 8C22.75 8.41 22.41 8.75 22 8.75H20.75V11.25H22C22.41 11.25 22.75 11.59 22.75 12C22.75 12.41 22.41 12.75 22 12.75H20.75V15.25H22C22.41 15.25 22.75 15.59 22.75 16C22.75 16.41 22.41 16.75 22 16.75H20.75V18C20.75 19.52 19.52 20.75 18 20.75H16.75V22C16.75 22.41 16.41 22.75 16 22.75ZM16 19.25H18C18.69 19.25 19.25 18.69 19.25 18V16V12V8V6C19.25 5.31 18.69 4.75 18 4.75H16H12H8H6C5.31 4.75 4.75 5.31 4.75 6V8V12V16V18C4.75 18.69 5.31 19.25 6 19.25H8H12H16ZM10.782 16.3995C10.972 16.9195 11.452 17.2495 12.002 17.2495C12.552 17.2495 13.032 16.9195 13.222 16.3995L14.022 14.2395C14.052 14.1395 14.132 14.0695 14.232 14.0295L16.392 13.2295C16.912 13.0395 17.242 12.5595 17.242 12.0095C17.242 11.4595 16.912 10.9795 16.392 10.7895L14.232 9.98953C14.132 9.95953 14.062 9.87953 14.022 9.77953L13.222 7.61952C13.032 7.09952 12.552 6.76953 12.002 6.76953C11.452 6.76953 10.972 7.09952 10.782 7.61952L9.98199 9.77953C9.95199 9.87953 9.872 9.94953 9.772 9.98953L7.612 10.7895C7.092 10.9795 6.76199 11.4595 6.76199 12.0095C6.76199 12.5595 7.092 13.0395 7.612 13.2295L9.772 14.0295C9.872 14.0595 9.94199 14.1395 9.98199 14.2395L10.782 16.3995ZM10.292 12.6195L8.62201 11.9995L10.292 11.3795C10.802 11.1895 11.202 10.7895 11.392 10.2795L12.012 8.60953L12.632 10.2795C12.822 10.7895 13.222 11.1895 13.732 11.3795L15.402 11.9995L13.732 12.6195C13.222 12.8095 12.822 13.2095 12.632 13.7195L12.012 15.3895L11.392 13.7195C11.202 13.2095 10.802 12.8095 10.292 12.6195Z" fill="#2563EB"/>
</svg>
