<svg width="24" height="24" viewBox="0 0 24 24" fill="none" xmlns="http://www.w3.org/2000/svg">
<path d="M14.7793 2.25C15.5324 2.25002 16.2012 2.73186 16.4395 3.44629L17.041 5.25H20C21.5188 5.25 22.75 6.48122 22.75 8V19C22.75 20.5188 21.5188 21.75 20 21.75H4C2.48122 21.75 1.25 20.5188 1.25 19V8C1.25 6.48122 2.48122 5.25 4 5.25H6.95898L7.56055 3.44629C7.79882 2.73186 8.46757 2.25002 9.2207 2.25H14.7793ZM9.2207 3.75C9.11312 3.75002 9.01742 3.81883 8.9834 3.9209L8.21191 6.2373C8.10983 6.54356 7.82282 6.75 7.5 6.75H4C3.30964 6.75 2.75 7.30964 2.75 8V19C2.75 19.6904 3.30964 20.25 4 20.25H20C20.6904 20.25 21.25 19.6904 21.25 19V8C21.25 7.30964 20.6904 6.75 20 6.75H16.5C16.1772 6.75 15.8902 6.54356 15.7881 6.2373L15.0166 3.9209C14.9826 3.81883 14.8869 3.75002 14.7793 3.75H9.2207ZM12.002 9.75C14.3495 9.75026 16.2529 11.6526 16.2529 14C16.2529 16.3474 14.3495 18.2497 12.002 18.25C9.65422 18.25 7.75 16.3475 7.75 14C7.75 11.6525 9.65422 9.75 12.002 9.75ZM12.002 11.25C10.4821 11.25 9.25 12.4815 9.25 14C9.25 15.5185 10.4821 16.75 12.002 16.75C13.5216 16.7497 14.7529 15.5183 14.7529 14C14.7529 12.4817 13.5216 11.2503 12.002 11.25ZM12 5C12.5523 5 13 5.44772 13 6C13 6.55228 12.5523 7 12 7C11.4477 7 11 6.55228 11 6C11 5.44772 11.4477 5 12 5Z" fill="#2563EB"/>
</svg>
