<svg width="11" height="11" viewBox="0 0 11 11" fill="none" xmlns="http://www.w3.org/2000/svg">
<path fill-rule="evenodd" clip-rule="evenodd" d="M0.146447 0.146447C0.341709 -0.0488155 0.658291 -0.0488155 0.853553 0.146447L5.16667 4.45956L9.47978 0.146447C9.67504 -0.0488155 9.99162 -0.0488155 10.1869 0.146447C10.3821 0.341709 10.3821 0.658291 10.1869 0.853553L5.87377 5.16667L10.1869 9.47978C10.3821 9.67504 10.3821 9.99162 10.1869 10.1869C9.99162 10.3821 9.67504 10.3821 9.47978 10.1869L5.16667 5.87377L0.853553 10.1869C0.658291 10.3821 0.341709 10.3821 0.146447 10.1869C-0.0488155 9.99162 -0.0488155 9.67504 0.146447 9.47978L4.45956 5.16667L0.146447 0.853553C-0.0488155 0.658291 -0.0488155 0.341709 0.146447 0.146447Z" fill="#828282"/>
</svg>
