<svg width="22" height="22" viewBox="0 0 22 22" fill="none" xmlns="http://www.w3.org/2000/svg">
<path fill-rule="evenodd" clip-rule="evenodd" d="M17.8214 17.8199C14.7652 20.8763 10.2398 21.5367 6.53642 19.824C5.98971 19.6039 5.54148 19.426 5.11537 19.426C3.92849 19.433 2.45117 20.5839 1.68336 19.817C0.915554 19.0491 2.06726 17.5706 2.06726 16.3766C2.06726 15.9504 1.89642 15.5102 1.67632 14.9624C-0.0371693 11.2596 0.624109 6.73269 3.68026 3.67721C7.5816 -0.225568 13.92 -0.225568 17.8214 3.6762C21.7297 7.58501 21.7227 13.9181 17.8214 17.8199Z" stroke="#828282" stroke-width="1.5" stroke-linecap="round" stroke-linejoin="round"/>
<path d="M14.6893 11.163H14.6983" stroke="#828282" stroke-width="2" stroke-linecap="round" stroke-linejoin="round"/>
<path d="M10.6806 11.163H10.6896" stroke="#828282" stroke-width="2" stroke-linecap="round" stroke-linejoin="round"/>
<path d="M6.67128 11.163H6.68028" stroke="#828282" stroke-width="2" stroke-linecap="round" stroke-linejoin="round"/>
</svg>
