<svg xmlns="http://www.w3.org/2000/svg" width="24" height="24" fill="none" viewBox="0 0 24 24">
  <path fill="#2563EB" d="M5.12 1.26c.238.038.443.19.55.405l3 6a.75.75 0 0 1-.14.865l-3.957 3.957a16.325 16.325 0 0 0 6.94 6.94l3.957-3.957a.75.75 0 0 1 .865-.14l6 3a.75.75 0 0 1 .195 1.2l-2.414 2.414a2.63 2.63 0 0 1-1.98.786C9.02 22.292 1.708 14.98 1.27 5.864c-.037-.76.274-1.47.785-1.98L4.47 1.47a.75.75 0 0 1 .65-.21Zm7.847 18.834a16.176 16.176 0 0 0 5.24 1.137c.3.015.61-.108.849-.347l1.677-1.679-4.585-2.293-3.181 3.182ZM9.747 3.48a7.616 7.616 0 1 1 10.446 11.08.75.75 0 0 1-.997-1.121 6.117 6.117 0 1 0-8.636-8.636.75.75 0 0 1-1.12-.997c.098-.111.201-.22.307-.326ZM13.5 6.25a.75.75 0 0 1 .75.75v2.5a.75.75 0 0 1-.75.75h-1.25v1h1.25a.75.75 0 0 1 0 1.5h-2a.75.75 0 0 1-.75-.75V9.5a.75.75 0 0 1 .75-.75h1.25v-1H11a.75.75 0 0 1 0-1.5h2.5Zm4.5 0a.75.75 0 0 1 .75.75v5a.75.75 0 0 1-1.5 0v-1.75h-1.393a.75.75 0 0 1-.75-.75V7a.75.75 0 0 1 1.5 0v1.75h.643V7a.75.75 0 0 1 .75-.75ZM3.116 4.944c-.24.24-.362.55-.347.849a16.176 16.176 0 0 0 1.137 5.24l3.18-3.181-2.292-4.585-1.678 1.677Z"/>
</svg>
