<svg width="24" height="24" viewBox="0 0 24 24" fill="none" xmlns="http://www.w3.org/2000/svg">
<path d="M12 2.25C16.0553 2.25 19.5545 5.01277 19.7402 8.69238C19.9386 8.76316 20.1307 8.85687 20.3105 8.97656L21.9697 10.082C22.457 10.4065 22.7499 10.9527 22.75 11.5381V14.4668C22.75 15.0523 22.4571 15.5993 21.9697 15.9238L20.3105 17.0283C20.1336 17.1461 19.945 17.2391 19.75 17.3096V19C19.75 20.5188 18.5188 21.75 17 21.75H12C11.5858 21.75 11.25 21.4142 11.25 21C11.25 20.5858 11.5858 20.25 12 20.25H17C17.6904 20.25 18.25 19.6904 18.25 19V17.3916C18.0602 17.3458 17.8732 17.2798 17.6943 17.1904C16.8092 16.7479 16.25 15.8431 16.25 14.8535V11.1514C16.2502 10.1618 16.8092 9.25692 17.6943 8.81445C17.8672 8.72807 18.0473 8.66288 18.2305 8.61719C17.9986 5.98457 15.4006 3.75 12 3.75C8.59938 3.75 6.00038 5.98454 5.76855 8.61719C5.95202 8.66288 6.13253 8.72792 6.30566 8.81445C7.1908 9.25692 7.74984 10.1618 7.75 11.1514V14.8535C7.75 15.8431 7.19079 16.7479 6.30566 17.1904C5.46764 17.6093 4.46929 17.5475 3.68945 17.0283L2.03027 15.9238C1.54292 15.5993 1.25 15.0523 1.25 14.4668V11.5381C1.25008 10.9527 1.54304 10.4065 2.03027 10.082L3.68945 8.97656C3.86902 8.85705 4.06071 8.76313 4.25879 8.69238C4.44448 5.01275 7.94469 2.25 12 2.25ZM5.63477 10.1562C5.27787 9.9779 4.85261 10.0045 4.52051 10.2256L2.86133 11.3301C2.79178 11.3764 2.75008 11.4545 2.75 11.5381V14.4668C2.75 14.5503 2.79189 14.6284 2.86133 14.6748L4.52051 15.7803C4.85262 16.0013 5.27789 16.027 5.63477 15.8486C6.01172 15.6601 6.25 15.275 6.25 14.8535V11.1514C6.24984 10.73 6.01171 10.3446 5.63477 10.1562ZM19.4795 10.2256C19.1474 10.0045 18.7221 9.9779 18.3652 10.1562C17.9883 10.3446 17.7502 10.73 17.75 11.1514V14.8535C17.75 15.275 17.9883 15.6601 18.3652 15.8486C18.7221 16.027 19.1474 16.0013 19.4795 15.7803L21.1387 14.6748C21.2081 14.6284 21.25 14.5503 21.25 14.4668V11.5381C21.2499 11.4545 21.2082 11.3764 21.1387 11.3301L19.4795 10.2256Z" fill="#2563EB"/>
</svg>
