<svg width="16" height="16" viewBox="0 0 16 16" fill="none" xmlns="http://www.w3.org/2000/svg">
<path d="M12.626 5.7981C12.7589 5.7981 12.8793 5.85635 12.9746 5.95435C13.0634 6.059 13.1087 6.18912 13.0957 6.32642C13.094 6.39309 12.7396 10.8694 12.5371 12.7561C12.41 13.9165 11.6621 14.6214 10.54 14.6409C9.6772 14.6602 8.83336 14.6663 8.00293 14.6663C7.12115 14.6663 6.25794 14.6602 5.4209 14.6409C4.33647 14.6147 3.58742 13.8972 3.4668 12.7561C3.25855 10.863 2.91152 6.39413 2.90332 6.32642C2.89684 6.18915 2.94089 6.05898 3.03027 5.95435C3.11843 5.85637 3.24538 5.79813 3.37891 5.7981H12.626ZM9.37695 1.33325C9.96613 1.33347 10.4922 1.74479 10.6445 2.3313L10.7539 2.81763C10.8421 3.21429 11.1855 3.49536 11.5811 3.49536H13.5244C13.7838 3.49536 14 3.71062 14 3.98462V4.23755C14 4.50488 13.7838 4.72681 13.5244 4.72681H2.47559C2.21573 4.72663 2 4.50477 2 4.23755V3.98462C2 3.71073 2.21573 3.49554 2.47559 3.49536H4.41992C4.81468 3.49526 5.15825 3.21452 5.24707 2.8186L5.34863 2.36353C5.50689 1.74454 6.02749 1.33347 6.62305 1.33325H9.37695Z" fill="#2563EB"/>
</svg>
