<svg xmlns="http://www.w3.org/2000/svg" width="40" height="40" fill="none" viewBox="0 0 40 40">
  <rect width="40" height="40" fill="#EF4444" fill-opacity=".2" rx="20"/>
  <path stroke="#EF4444" stroke-linecap="round" stroke-linejoin="round" stroke-width="1.5" d="M27.325 17.468s-.543 6.735-.858 9.572c-.15 1.355-.987 2.15-2.358 2.174-2.61.047-5.221.05-7.83-.005-1.318-.027-2.141-.83-2.288-2.162-.317-2.862-.857-9.579-.857-9.579m15.574-3.228H11.75m13.69 0a1.648 1.648 0 0 1-1.614-1.324l-.243-1.216a1.28 1.28 0 0 0-1.237-.95h-4.233a1.28 1.28 0 0 0-1.237.95l-.243 1.216a1.648 1.648 0 0 1-1.615 1.324"/>
</svg>
