<svg xmlns="http://www.w3.org/2000/svg" width="24" height="24" fill="none" viewBox="0 0 24 24">
  <path fill="#2563EB" d="M17.999 1.25a.75.75 0 0 1 .751.75v3.5a.75.75 0 0 1-.75.75h-3c-.908 0-1.087.221-1.128.282a.743.743 0 0 0-.098.32c-.023.177-.024.38-.024.648v1.25H18a.75.75 0 0 1 .727.932l-1 4a.75.75 0 0 1-.727.568h-3.25V22a.75.75 0 0 1-.75.75H9a.75.75 0 0 1-.75-.75v-7.75H5a.75.75 0 0 1-.75-.75v-4A.75.75 0 0 1 5 8.75h3.25V6.7c0-1.684.538-3.068 1.532-4.03.99-.957 2.352-1.42 3.86-1.42H18Zm-4.356 1.5c-1.206 0-2.165.366-2.818.998-.649.628-1.075 1.594-1.075 2.952v2.8a.75.75 0 0 1-.75.75H5.75v2.5H9a.75.75 0 0 1 .75.75v7.75h2.5V13.5a.75.75 0 0 1 .75-.75h3.414l.625-2.5H13a.75.75 0 0 1-.75-.75V7.479c0-.243 0-.54.038-.825.04-.3.127-.642.34-.959.46-.682 1.28-.945 2.372-.945h2.25v-2h-3.607Z"/>
</svg>
