<svg width="18" height="16" viewBox="0 0 18 16" fill="none" xmlns="http://www.w3.org/2000/svg">
<path d="M7.08001 12.8428H0.779297" stroke="white" stroke-width="1.5" stroke-linecap="round" stroke-linejoin="round"/>
<path d="M9.89062 3.15042H16.1913" stroke="white" stroke-width="1.5" stroke-linecap="round" stroke-linejoin="round"/>
<path fill-rule="evenodd" clip-rule="evenodd" d="M5.47629 3.09625C5.47629 1.8006 4.41813 0.75 3.11314 0.75C1.80816 0.75 0.75 1.8006 0.75 3.09625C0.75 4.39191 1.80816 5.44251 3.11314 5.44251C4.41813 5.44251 5.47629 4.39191 5.47629 3.09625Z" stroke="white" stroke-width="1.5" stroke-linecap="round" stroke-linejoin="round"/>
<path fill-rule="evenodd" clip-rule="evenodd" d="M16.7502 12.8038C16.7502 11.5081 15.6929 10.4575 14.3879 10.4575C13.0821 10.4575 12.0239 11.5081 12.0239 12.8038C12.0239 14.0994 13.0821 15.15 14.3879 15.15C15.6929 15.15 16.7502 14.0994 16.7502 12.8038Z" stroke="white" stroke-width="1.5" stroke-linecap="round" stroke-linejoin="round"/>
</svg>
