<svg width="16" height="16" viewBox="0 0 16 16" fill="none" xmlns="http://www.w3.org/2000/svg">
<path d="M10.889 1.33325C13.1485 1.33325 14.6663 2.9186 14.6663 5.27759V10.7219C14.6663 13.0808 13.1489 14.666 10.889 14.6663H5.11068C2.85122 14.6662 1.33334 13.081 1.33334 10.7219V5.27759C1.3334 2.91863 2.85126 1.3333 5.11068 1.33325H10.889ZM11.6244 8.36743C10.91 7.92186 10.3584 8.54685 10.2093 8.74731C10.066 8.94055 9.94183 9.15428 9.81185 9.36743C9.49417 9.89362 9.13026 10.5009 8.50033 10.8538C7.58476 11.3605 6.88904 10.8928 6.389 10.553C6.20139 10.4265 6.01882 10.3066 5.83724 10.2268C5.38958 10.0338 4.98681 10.2546 4.389 11.0139C4.07535 11.4108 3.76356 11.8045 3.44857 12.1965C3.26084 12.431 3.30548 12.7926 3.55892 12.9495C3.96444 13.1992 4.4599 13.3332 5.01888 13.3333H10.637C10.954 13.3333 11.2726 13.2906 11.5755 13.1917C12.2578 12.9688 12.7994 12.4574 13.0824 11.7834C13.321 11.2166 13.4363 10.5286 13.2132 9.9563C13.1388 9.76644 13.0276 9.58931 12.8714 9.43384C12.462 9.02744 12.0793 8.64806 11.6244 8.36743ZM5.66537 4.00024C4.74652 4.00054 3.99935 4.74857 3.99935 5.66724C3.9997 6.5856 4.74673 7.33296 5.66537 7.33325C6.58358 7.33325 7.33103 6.58578 7.33138 5.66724C7.33138 4.74839 6.58379 4.00024 5.66537 4.00024Z" fill="#2563EB"/>
</svg>
