<svg width="24" height="24" viewBox="0 0 24 24" fill="none" xmlns="http://www.w3.org/2000/svg">
<path d="M4.92285 6.0498C9.33113 4.98366 14.6689 4.98362 19.0771 6.0498C20.1056 6.29855 20.8985 7.04107 21.2617 8.01074C21.8462 9.57096 22.5169 12.2005 22.7441 15.7607C22.836 17.1999 21.8517 18.2489 20.876 18.9658C20.0352 19.5836 19.0203 20.0851 18.2393 20.4707C18.0969 20.541 17.9622 20.6073 17.8379 20.6699C17.4816 20.8493 17.0465 20.7184 16.8486 20.3721L15.1367 17.376C15.0922 17.2982 15.0095 17.2501 14.9199 17.25L9.08008 17.25C8.99046 17.2501 8.90775 17.2982 8.86328 17.376L7.15137 20.3721C6.95353 20.7183 6.51927 20.8491 6.16309 20.6699C6.03863 20.6072 5.90326 20.5411 5.76074 20.4707C4.97976 20.0851 3.96483 19.5835 3.12402 18.9658C2.14829 18.249 1.16401 17.1999 1.25586 15.7607C1.48311 12.2005 2.15382 9.57096 2.73828 8.01074C3.10154 7.0411 3.89445 6.29854 4.92285 6.0498ZM18.7246 7.50781C14.5481 6.49765 9.45197 6.49768 5.27539 7.50781C4.7567 7.63327 4.34102 8.00737 4.14258 8.53711C3.61451 9.94684 2.97164 12.4299 2.75293 15.8564C2.71262 16.4881 3.13061 17.1088 4.0127 17.7568C4.67731 18.2451 5.46773 18.6501 6.2002 19.0137L7.56055 16.6318C7.87208 16.0866 8.45217 15.7501 9.08008 15.75L14.9199 15.75C15.5478 15.7501 16.1279 16.0867 16.4395 16.6318L17.7998 19.0137C18.5322 18.6501 19.3228 18.2451 19.9873 17.7568C20.8693 17.1088 21.2874 16.4881 21.2471 15.8564C21.0284 12.4299 20.3855 9.94685 19.8574 8.53711C19.659 8.00737 19.2433 7.63327 18.7246 7.50781ZM8.46973 9.46973C8.76262 9.17683 9.23738 9.17683 9.53027 9.46973C9.82317 9.76262 9.82317 10.2374 9.53027 10.5303L8.56055 11.5L9.53027 12.4697C9.82317 12.7626 9.82317 13.2374 9.53027 13.5303C9.23738 13.8232 8.76262 13.8232 8.46973 13.5303L7.5 12.5605L6.53027 13.5303C6.23738 13.8232 5.76262 13.8232 5.46973 13.5303C5.17683 13.2374 5.17683 12.7626 5.46973 12.4697L6.43945 11.5L5.46973 10.5303C5.17683 10.2374 5.17683 9.76262 5.46973 9.46973C5.76262 9.17683 6.23738 9.17683 6.53027 9.46973L7.5 10.4395L8.46973 9.46973ZM17.9971 12.25C18.4113 12.25 18.7471 12.5858 18.7471 13C18.7471 13.4142 18.4113 13.75 17.9971 13.75H17.9883C17.5741 13.75 17.2383 13.4142 17.2383 13C17.2383 12.5858 17.5741 12.25 17.9883 12.25H17.9971ZM15.9971 9.25C16.4113 9.25 16.7471 9.58579 16.7471 10C16.7471 10.4142 16.4113 10.75 15.9971 10.75H15.9883C15.5741 10.75 15.2383 10.4142 15.2383 10C15.2383 9.58579 15.5741 9.25 15.9883 9.25H15.9971ZM6.77832 3.27344C7.17959 3.17145 7.58724 3.41416 7.68945 3.81543C7.79149 4.21662 7.54953 4.62419 7.14844 4.72656L5.18555 5.22656C4.78423 5.32879 4.37578 5.08681 4.27344 4.68555C4.17119 4.28415 4.41403 3.87569 4.81543 3.77344L6.77832 3.27344ZM16.2725 3.81836C16.3729 3.41666 16.7799 3.17229 17.1816 3.27246L19.1816 3.77246C19.5834 3.87289 19.8278 4.27991 19.7275 4.68164C19.6271 5.08348 19.2202 5.32799 18.8184 5.22754L16.8184 4.72754C16.4165 4.62709 16.1721 4.22017 16.2725 3.81836Z" fill="#2563EB"/>
</svg>
