<svg xmlns="http://www.w3.org/2000/svg" width="24" height="24" fill="none" viewBox="0 0 24 24">
  <path fill="#2563EB" d="M12 1.25c5.937 0 10.75 4.813 10.75 10.75S17.937 22.75 12 22.75 1.25 17.937 1.25 12 6.063 1.25 12 1.25Zm-9.217 11.5a9.253 9.253 0 0 0 7.348 8.311 16.888 16.888 0 0 1-1.012-1.406c-1.08-1.68-2.177-4.051-2.345-6.905h-3.99Zm14.443 0c-.168 2.854-1.265 5.224-2.345 6.905-.347.54-.696 1.01-1.013 1.406a9.253 9.253 0 0 0 7.349-8.311h-3.991Zm-8.948 0c.166 2.481 1.124 4.572 2.103 6.095A15.211 15.211 0 0 0 12 20.939l.146-.16c.4-.445.937-1.1 1.473-1.934.98-1.523 1.937-3.614 2.103-6.095H8.278Zm1.853-9.813a9.254 9.254 0 0 0-7.348 8.313h3.991C6.942 8.396 8.04 6.025 9.12 4.345c.347-.54.695-1.01 1.012-1.407Zm1.723.284c-.4.444-.937 1.1-1.473 1.934C9.4 6.678 8.444 8.77 8.278 11.25h7.444c-.166-2.481-1.124-4.572-2.103-6.095A15.212 15.212 0 0 0 12 3.062l-.146.159Zm2.014-.284c.317.398.666.868 1.013 1.408 1.08 1.68 2.177 4.051 2.345 6.905h3.99a9.254 9.254 0 0 0-7.348-8.313Z"/>
</svg>
