<svg width="24" height="24" viewBox="0 0 24 24" fill="none" xmlns="http://www.w3.org/2000/svg">
<path d="M12 2.75C16.8325 2.75 20.75 6.66751 20.75 11.5V12.9502C21.0416 13.2216 21.3489 13.5353 21.6309 13.8799C22.1919 14.5654 22.7498 15.4859 22.75 16.5C22.75 17.5142 22.192 18.4355 21.6309 19.1211C21.0533 19.8268 20.3715 20.4046 19.9287 20.749C19.3987 21.1612 18.7028 21.1907 18.1455 20.9121L17.2178 20.4473C16.625 20.1509 16.2502 19.5455 16.25 18.8828V14.1182C16.2501 13.4554 16.625 12.8491 17.2178 12.5527L18.1455 12.0889C18.4852 11.919 18.8764 11.8636 19.25 11.9395V11.5C19.25 7.49594 16.0041 4.25 12 4.25C7.99594 4.25 4.75 7.49594 4.75 11.5V11.9395C5.12362 11.8636 5.51477 11.919 5.85449 12.0889L6.78223 12.5527C7.37501 12.8491 7.74989 13.4554 7.75 14.1182V18.8828C7.74984 19.5455 7.37497 20.1509 6.78223 20.4473L5.85449 20.9121C5.29724 21.1907 4.60131 21.1612 4.07129 20.749C3.62847 20.4046 2.94671 19.8268 2.36914 19.1211C1.80804 18.4355 1.25 17.5142 1.25 16.5C1.25016 15.4859 1.80812 14.5654 2.36914 13.8799C2.65114 13.5353 2.95836 13.2216 3.25 12.9502V11.5C3.25 6.66751 7.16751 2.75 12 2.75ZM5.18359 13.4307C5.09897 13.3884 5.02868 13.4072 4.99219 13.4355C4.59161 13.7471 4.00756 14.2469 3.53027 14.8301C3.03632 15.4336 2.75017 16.0138 2.75 16.5C2.75 16.9863 3.03617 17.5672 3.53027 18.1709C4.00758 18.7541 4.59163 19.2539 4.99219 19.5654C5.02868 19.5938 5.09899 19.6126 5.18359 19.5703L6.11133 19.1064C6.1959 19.0642 6.24984 18.9773 6.25 18.8828V14.1182C6.24989 14.0236 6.19593 13.9368 6.11133 13.8945L5.18359 13.4307ZM19.0078 13.4355C18.9713 13.4072 18.901 13.3884 18.8164 13.4307L17.8887 13.8945C17.8041 13.9368 17.7501 14.0236 17.75 14.1182V18.8828C17.7502 18.9773 17.8041 19.0642 17.8887 19.1064L18.8164 19.5703C18.901 19.6126 18.9713 19.5938 19.0078 19.5654C19.4084 19.2539 19.9924 18.7541 20.4697 18.1709C20.9638 17.5672 21.25 16.9863 21.25 16.5C21.2498 16.0138 20.9637 15.4336 20.4697 14.8301C19.9924 14.2469 19.4084 13.7471 19.0078 13.4355Z" fill="#2563EB"/>
</svg>
