<svg width="120" height="105" viewBox="0 0 120 105" fill="none" xmlns="http://www.w3.org/2000/svg">
<g clip-path="url(#clip0_2578_82642)">
<path d="M0 33.9034C0 15.7312 14.7314 1.00023 32.9032 1.00023C40.9629 1.00023 48.3403 3.9025 54.0584 8.71539C57.4952 11.6083 62.505 11.6083 65.9416 8.71539C71.6595 3.90226 79.0369 1.00023 87.0968 1.00023C105.269 1.00023 120 15.7312 120 33.9034V32.9357C120 64.8452 81.1936 93.625 65.9986 103.671C64.2193 104.848 62.1332 105.475 59.9999 105.475C57.8666 105.475 55.7804 104.848 54.0012 103.671C38.8064 93.625 0 64.8452 0 32.9357" fill="#FF6464"/>
<path d="M0 33.9032C0 33.764 0.0192188 33.6297 0.0208594 33.4909C0.0180469 33.3055 0 33.1213 0 32.9355V33.9032ZM26.9114 36.0646C26.91 36.2144 26.8966 36.3595 26.8966 36.5097V35.4651C26.8966 35.6657 26.9095 35.8645 26.9114 36.0646C27.0389 20.3882 33.8093 7.16125 43.1316 2.65656C39.9091 1.60047 36.4798 1 32.9032 1C14.8704 1 0.243984 15.5109 0.0208594 33.4909C0.468281 65.1782 38.895 93.6834 54.0014 103.671C55.5516 104.695 57.2988 105.257 59.074 105.408C46.609 91.4015 27.1781 64.9605 26.9114 36.0646Z" fill="#D2555A"/>
<path d="M105.36 36.8282C109.508 36.8282 112.87 33.4658 112.87 29.3179C112.87 25.1701 109.508 21.8076 105.36 21.8076C101.212 21.8076 97.8496 25.1701 97.8496 29.3179C97.8496 33.4658 101.212 36.8282 105.36 36.8282Z" fill="#FF8B8B"/>
<path d="M95.7282 19.6918C98.3207 19.6918 100.422 17.5902 100.422 14.9978C100.422 12.4053 98.3207 10.3037 95.7282 10.3037C93.1358 10.3037 91.0342 12.4053 91.0342 14.9978C91.0342 17.5902 93.1358 19.6918 95.7282 19.6918Z" fill="#FFC1C1"/>
</g>
<defs>
<clipPath id="clip0_2578_82642">
<rect width="120" height="105" fill="white"/>
</clipPath>
</defs>
</svg>
