<svg xmlns="http://www.w3.org/2000/svg" width="40" height="40" fill="none" viewBox="0 0 40 40">
  <rect width="40" height="40" fill="#2563EB" fill-opacity=".1" rx="20"/>
  <path fill="#2563EB" d="M27.5 9.75a2.75 2.75 0 0 1 2.75 2.75v15a2.75 2.75 0 0 1-2.75 2.75h-15a2.75 2.75 0 0 1-2.75-2.75v-15a2.75 2.75 0 0 1 2.75-2.75h15Zm-15 1.5c-.69 0-1.25.56-1.25 1.25v15c0 .69.56 1.25 1.25 1.25h15c.69 0 1.25-.56 1.25-1.25v-15c0-.69-.56-1.25-1.25-1.25h-15Zm7.5 3.5a5.25 5.25 0 1 1 0 10.5 5.25 5.25 0 0 1 0-10.5Zm0 1.5a3.75 3.75 0 1 0 0 7.5 3.75 3.75 0 0 0 0-7.5Zm5.508-2.75a1 1 0 1 1 0 2h-.009a1 1 0 1 1 0-2h.009Z"/>
</svg>
