<svg width="16" height="16" viewBox="0 0 16 16" fill="none" xmlns="http://www.w3.org/2000/svg">
<path d="M13.333 1.83301C14.3455 1.83301 15.167 2.65447 15.167 3.66699V12.333C15.167 13.3455 14.3455 14.167 13.333 14.167H2.66699C1.65447 14.167 0.833008 13.3455 0.833008 12.333V3.66699C0.833008 2.65447 1.65447 1.83301 2.66699 1.83301H13.333ZM7.79785 10.3145C6.88263 8.0336 3.71597 8.20405 2.86914 10.3145C2.80755 10.4684 2.8261 10.6429 2.91895 10.7803C3.01188 10.9177 3.16712 10.9999 3.33301 11H7.33301C7.49894 11 7.65406 10.9177 7.74707 10.7803C7.83995 10.6429 7.85941 10.4684 7.79785 10.3145ZM9.33301 9.83301C9.05712 9.83318 8.83318 10.0571 8.83301 10.333C8.83301 10.609 9.05702 10.8328 9.33301 10.833H11C11.2761 10.833 11.5 10.6091 11.5 10.333C11.4998 10.057 11.276 9.83301 11 9.83301H9.33301ZM9.33301 7.5C9.05702 7.50018 8.83301 7.72397 8.83301 8C8.83301 8.27603 9.05702 8.49982 9.33301 8.5H12.667C12.943 8.49982 13.167 8.27603 13.167 8C13.167 7.72397 12.943 7.50018 12.667 7.5H9.33301ZM5.33301 5C4.59689 5.00018 4.00018 5.59689 4 6.33301C4 7.06928 4.59678 7.66682 5.33301 7.66699C6.06939 7.66699 6.66699 7.06939 6.66699 6.33301C6.66682 5.59678 6.06928 5 5.33301 5ZM9.33301 5.16699C9.05702 5.16717 8.83301 5.39096 8.83301 5.66699C8.83318 5.94288 9.05712 6.16682 9.33301 6.16699H12.667C12.9429 6.16682 13.1668 5.94288 13.167 5.66699C13.167 5.39096 12.943 5.16717 12.667 5.16699H9.33301Z" fill="#2563EB"/>
</svg>
