<svg width="24" height="24" viewBox="0 0 24 24" fill="none" xmlns="http://www.w3.org/2000/svg">
<path d="M12 1.25C17.9371 1.25 22.75 6.06294 22.75 12C22.75 17.9371 17.9371 22.75 12 22.75C6.06294 22.75 1.25 17.9371 1.25 12C1.25 6.06294 6.06294 1.25 12 1.25ZM12 2.75C6.89137 2.75 2.75 6.89137 2.75 12C2.75 17.1086 6.89137 21.25 12 21.25C17.1086 21.25 21.25 17.1086 21.25 12C21.25 6.89137 17.1086 2.75 12 2.75ZM11.5 6.25C11.9142 6.25 12.25 6.58579 12.25 7V7.75H17C17.4142 7.75 17.75 8.08579 17.75 8.5C17.75 8.91421 17.4142 9.25 17 9.25H15.0811C14.6861 10.5341 13.8429 12.0086 12.8584 13.376C12.7771 13.489 12.6942 13.6015 12.6104 13.7139C12.7865 13.9144 12.9608 14.0994 13.126 14.2607C13.4461 14.5734 13.6913 14.7572 13.835 14.8291C14.2053 15.0143 14.3558 15.4646 14.1709 15.835C13.9857 16.2053 13.5354 16.3558 13.165 16.1709C12.8087 15.9927 12.4284 15.6761 12.0771 15.333C11.9412 15.2002 11.8028 15.0568 11.6641 14.9053C10.7937 15.9351 9.85715 16.8752 8.96875 17.5859C8.6453 17.8447 8.17282 17.7922 7.91406 17.4688C7.65531 17.1453 7.7078 16.6728 8.03125 16.4141C8.89148 15.7259 9.82789 14.7755 10.6953 13.7246C10.0925 12.909 9.54055 11.9947 9.28809 11.2373C9.1571 10.8443 9.36974 10.4191 9.7627 10.2881C10.1557 10.1571 10.5809 10.3697 10.7119 10.7627C10.8663 11.2257 11.2124 11.848 11.6523 12.4844C12.4759 11.3385 13.1271 10.2035 13.4941 9.25H7C6.58579 9.25 6.25 8.91421 6.25 8.5C6.25 8.08579 6.58579 7.75 7 7.75H10.75V7C10.75 6.58579 11.0858 6.25 11.5 6.25Z" fill="#2563EB"/>
</svg>
