<svg width="24" height="24" viewBox="0 0 24 24" fill="none" xmlns="http://www.w3.org/2000/svg">
<path d="M17.9999 1.75C19.5187 1.75 20.7499 2.98122 20.7499 4.5V13.8672L22.5712 18.8623C22.9192 19.7036 22.7353 20.5726 22.2372 21.209C21.7398 21.8443 20.9349 22.25 20.0214 22.25H3.97937C3.06583 22.25 2.26097 21.8443 1.76355 21.209C1.26532 20.5726 1.08144 19.7037 1.42957 18.8623L3.24988 13.8672V4.5C3.24988 2.98131 4.48123 1.75016 5.99988 1.75H17.9999ZM2.82605 19.4102L2.81824 19.4277C2.6926 19.7243 2.74483 20.0293 2.94421 20.2842C3.14847 20.5451 3.51248 20.75 3.97937 20.75H20.0214C20.4882 20.75 20.8513 20.5451 21.0555 20.2842C21.2551 20.0293 21.3072 19.7244 21.1815 19.4277L21.1747 19.4102L19.4755 14.75H4.52527L2.82605 19.4102ZM5.99988 3.25C5.30966 3.25016 4.74988 3.80974 4.74988 4.5V13.25H19.2499V4.5C19.2499 3.80964 18.6902 3.25 17.9999 3.25H5.99988ZM12.0087 4.5C12.561 4.5 13.0087 4.94772 13.0087 5.5C13.0087 6.05228 12.561 6.5 12.0087 6.5H11.9999C11.4476 6.49999 10.9999 6.05228 10.9999 5.5C10.9999 4.94772 11.4476 4.50001 11.9999 4.5H12.0087Z" fill="#2563EB"/>
</svg>
