<svg width="24" height="24" viewBox="0 0 24 24" fill="none" xmlns="http://www.w3.org/2000/svg">
<path d="M20.3496 17C20.6554 17 20.953 17.0149 21.2188 17.0732C21.4928 17.1335 21.7792 17.2499 22.0146 17.4854C22.2501 17.7208 22.3665 18.0072 22.4268 18.2812C22.4851 18.547 22.5 18.8446 22.5 19.1504V20.3496C22.5 20.6554 22.4851 20.953 22.4268 21.2188C22.3665 21.4928 22.2501 21.7792 22.0146 22.0146C21.7792 22.2501 21.4928 22.3665 21.2188 22.4268C20.953 22.4851 20.6554 22.5 20.3496 22.5H3.15039C2.84459 22.5 2.54695 22.4851 2.28125 22.4268C2.00717 22.3665 1.72078 22.2501 1.48535 22.0146C1.24993 21.7792 1.1335 21.4928 1.07324 21.2188C1.01487 20.953 1 20.6554 1 20.3496V19.1504C1 18.8446 1.01487 18.547 1.07324 18.2812C1.1335 18.0072 1.24993 17.7208 1.48535 17.4854C1.72078 17.2499 2.00717 17.1335 2.28125 17.0732C2.54695 17.0149 2.84459 17 3.15039 17H20.3496ZM3.15039 18.5C2.8771 18.5 2.7089 18.5149 2.60352 18.5381C2.58094 18.543 2.5639 18.5478 2.55176 18.5518C2.54784 18.5639 2.54305 18.5809 2.53809 18.6035C2.51494 18.7089 2.5 18.8771 2.5 19.1504V20.3496C2.5 20.6229 2.51494 20.7911 2.53809 20.8965C2.54305 20.9191 2.54784 20.9361 2.55176 20.9482C2.5639 20.9522 2.58094 20.957 2.60352 20.9619C2.7089 20.9851 2.8771 21 3.15039 21H20.3496C20.6229 21 20.7911 20.9851 20.8965 20.9619C20.9191 20.957 20.9361 20.9522 20.9482 20.9482C20.9522 20.9361 20.957 20.9191 20.9619 20.8965C20.9851 20.7911 21 20.6229 21 20.3496V19.1504C21 18.8771 20.9851 18.7089 20.9619 18.6035C20.957 18.5809 20.9522 18.5639 20.9482 18.5518C20.9361 18.5478 20.9191 18.543 20.8965 18.5381C20.7911 18.5149 20.6229 18.5 20.3496 18.5H3.15039ZM20.3496 9.5C20.6554 9.5 20.953 9.51487 21.2188 9.57324C21.4928 9.6335 21.7792 9.74993 22.0146 9.98535C22.2501 10.2208 22.3665 10.5072 22.4268 10.7812C22.4851 11.047 22.5 11.3446 22.5 11.6504V12.8496C22.5 13.1554 22.4851 13.453 22.4268 13.7188C22.3665 13.9928 22.2501 14.2792 22.0146 14.5146C21.7792 14.7501 21.4928 14.8665 21.2188 14.9268C20.953 14.9851 20.6554 15 20.3496 15H3.15039C2.84459 15 2.54695 14.9851 2.28125 14.9268C2.00717 14.8665 1.72078 14.7501 1.48535 14.5146C1.24993 14.2792 1.1335 13.9928 1.07324 13.7188C1.01487 13.453 1 13.1554 1 12.8496V11.6504C1 11.3446 1.01487 11.047 1.07324 10.7812C1.1335 10.5072 1.24993 10.2208 1.48535 9.98535C1.72078 9.74993 2.00717 9.6335 2.28125 9.57324C2.54695 9.51487 2.84459 9.5 3.15039 9.5H20.3496ZM3.15039 11C2.8771 11 2.7089 11.0149 2.60352 11.0381C2.58094 11.043 2.5639 11.0478 2.55176 11.0518C2.54784 11.0639 2.54305 11.0809 2.53809 11.1035C2.51494 11.2089 2.5 11.3771 2.5 11.6504V12.8496C2.5 13.1229 2.51494 13.2911 2.53809 13.3965C2.54305 13.4191 2.54784 13.4361 2.55176 13.4482C2.5639 13.4522 2.58094 13.457 2.60352 13.4619C2.7089 13.4851 2.8771 13.5 3.15039 13.5H20.3496C20.6229 13.5 20.7911 13.4851 20.8965 13.4619C20.9191 13.457 20.9361 13.4522 20.9482 13.4482C20.9522 13.4361 20.957 13.4191 20.9619 13.3965C20.9851 13.2911 21 13.1229 21 12.8496V11.6504C21 11.3771 20.9851 11.2089 20.9619 11.1035C20.957 11.0809 20.9522 11.0639 20.9482 11.0518C20.9361 11.0478 20.9191 11.043 20.8965 11.0381C20.7911 11.0149 20.6229 11 20.3496 11H3.15039ZM20.3496 2C20.6554 2 20.953 2.01487 21.2188 2.07324C21.4928 2.1335 21.7792 2.24993 22.0146 2.48535C22.2501 2.72078 22.3665 3.00717 22.4268 3.28125C22.4851 3.54695 22.5 3.84459 22.5 4.15039V5.34961C22.5 5.65541 22.4851 5.95305 22.4268 6.21875C22.3665 6.49283 22.2501 6.77922 22.0146 7.01465C21.7792 7.25007 21.4928 7.3665 21.2188 7.42676C20.953 7.48513 20.6554 7.5 20.3496 7.5H3.15039C2.84459 7.5 2.54695 7.48513 2.28125 7.42676C2.00717 7.3665 1.72078 7.25007 1.48535 7.01465C1.24993 6.77922 1.1335 6.49283 1.07324 6.21875C1.01487 5.95305 1 5.65541 1 5.34961V4.15039C1 3.84459 1.01487 3.54695 1.07324 3.28125C1.1335 3.00717 1.24993 2.72078 1.48535 2.48535C1.72078 2.24993 2.00717 2.1335 2.28125 2.07324C2.54695 2.01487 2.84459 2 3.15039 2H20.3496ZM3.15039 3.5C2.8771 3.5 2.7089 3.51494 2.60352 3.53809C2.58094 3.54305 2.5639 3.54784 2.55176 3.55176C2.54784 3.5639 2.54305 3.58094 2.53809 3.60352C2.51494 3.7089 2.5 3.8771 2.5 4.15039V5.34961C2.5 5.6229 2.51494 5.7911 2.53809 5.89648C2.54305 5.91906 2.54784 5.9361 2.55176 5.94824C2.5639 5.95216 2.58094 5.95695 2.60352 5.96191C2.7089 5.98506 2.8771 6 3.15039 6H20.3496C20.6229 6 20.7911 5.98506 20.8965 5.96191C20.9191 5.95695 20.9361 5.95216 20.9482 5.94824C20.9522 5.9361 20.957 5.91906 20.9619 5.89648C20.9851 5.7911 21 5.6229 21 5.34961V4.15039C21 3.8771 20.9851 3.7089 20.9619 3.60352C20.957 3.58094 20.9522 3.5639 20.9482 3.55176C20.9361 3.54784 20.9191 3.54305 20.8965 3.53809C20.7911 3.51494 20.6229 3.5 20.3496 3.5H3.15039Z" fill="#828282"/>
</svg>
