<svg xmlns="http://www.w3.org/2000/svg" width="40" height="40" fill="none" viewBox="0 0 40 40">
  <g clip-path="url(#a)">
    <path fill="#2563EB" d="M20.937 9.357a4.679 4.679 0 1 0 0-9.357 4.679 4.679 0 0 0 0 9.357Z"/>
    <path fill="#2563EB" d="M20.937 40a2.807 2.807 0 1 0 0-5.614 2.807 2.807 0 0 0 0 5.614Z" opacity=".8"/>
    <path fill="#2563EB" d="M9.441 13.65a4.211 4.211 0 1 0 0-8.422 4.211 4.211 0 0 0 0 8.422Z" opacity=".9"/>
    <path fill="#2563EB" d="M32.433 34.769a2.34 2.34 0 1 0 0-4.679 2.34 2.34 0 0 0 0 4.679Z" opacity=".7"/>
    <path fill="#2563EB" d="M4.68 24.679a3.742 3.742 0 1 0 0-7.484 3.742 3.742 0 0 0 0 7.484Z" opacity=".9"/>
    <path fill="#2563EB" d="M37.194 22.805a1.87 1.87 0 1 0 0-3.74 1.87 1.87 0 0 0 0 3.74Z" opacity=".7"/>
    <path fill="#2563EB" d="M7.126 30.118a3.272 3.272 0 0 0 0 4.63 3.272 3.272 0 0 0 4.63 0 3.272 3.272 0 0 0 0-4.63 3.258 3.258 0 0 0-4.63 0Z" opacity=".8"/>
    <path fill="#2563EB" d="M32.432 10.842a1.403 1.403 0 1 0 0-2.805 1.403 1.403 0 0 0 0 2.805Z" opacity=".5"/>
  </g>
  <defs>
    <clipPath id="a">
      <path fill="#fff" d="M0 0h40v40H0z"/>
    </clipPath>
  </defs>
</svg>
