<svg width="144" height="144" viewBox="0 0 144 144" fill="none" xmlns="http://www.w3.org/2000/svg">
<circle cx="72" cy="72" r="71.5" fill="#2563EB" fill-opacity="0.1" stroke="#2563EB"/>
<g clip-path="url(#clip0_2809_253401)">
<path d="M72 36.5C67.2261 36.5 62.6478 38.407 59.2721 41.8015C55.8965 45.196 54 49.7999 54 54.6004C54 64.5955 65.175 86.5023 72 86.5023C78.825 86.5023 90 64.5978 90 54.6004C90 49.7999 88.1036 45.196 84.7279 41.8015C81.3523 38.407 76.7739 36.5 72 36.5ZM72 58.9633C71.1419 58.9633 70.3031 58.7074 69.5896 58.228C68.876 57.7486 68.3199 57.0672 67.9915 56.27C67.6632 55.4728 67.5772 54.5955 67.7446 53.7492C67.912 52.9029 68.3253 52.1255 68.9321 51.5153C69.5389 50.9051 70.3119 50.4896 71.1535 50.3213C71.9952 50.1529 72.8676 50.2393 73.6604 50.5695C74.4532 50.8998 75.1308 51.459 75.6075 52.1764C76.0843 52.8939 76.3388 53.7375 76.3388 54.6004C76.3388 55.1733 76.2265 55.7407 76.0085 56.27C75.7905 56.7993 75.4709 57.2803 75.068 57.6854C74.6651 58.0906 74.1868 58.4119 73.6604 58.6312C73.134 58.8505 72.5698 58.9633 72 58.9633Z" fill="#2563EB"/>
</g>
<defs>
<clipPath id="clip0_2809_253401">
<rect width="36" height="50" fill="white" transform="translate(54 36.5)"/>
</clipPath>
</defs>
</svg>
