<svg width="151" height="150" viewBox="0 0 151 150" fill="none" xmlns="http://www.w3.org/2000/svg">
<path d="M117.397 150C135.419 150 150.028 135.39 150.028 117.368C150.028 99.3462 135.419 84.7365 117.397 84.7365C99.3748 84.7365 84.7651 99.3462 84.7651 117.368C84.7651 135.39 99.3748 150 117.397 150Z" fill="#EF4444" fill-opacity="0.7"/>
<path d="M127.108 120.894L123.56 117.346L127.108 113.797C128.824 112.081 128.824 109.299 127.108 107.583C125.393 105.867 122.611 105.867 120.895 107.583L117.346 111.132L113.797 107.583C112.081 105.867 109.299 105.867 107.583 107.583C105.867 109.299 105.867 112.081 107.583 113.797L111.132 117.346L107.583 120.894C105.867 122.61 105.867 125.392 107.583 127.108C109.299 128.824 112.081 128.824 113.797 127.108L117.346 123.559L120.895 127.108C122.611 128.824 125.393 128.824 127.108 127.108C128.824 125.393 128.824 122.61 127.108 120.894Z" fill="white"/>
<path d="M31.117 53.5093C25.6687 58.9577 25.6687 67.7912 31.117 73.2396C36.5654 78.688 45.3988 78.688 50.8472 73.2396C60.3274 63.7594 75.6976 63.7594 85.1778 73.2396C90.6262 78.688 99.4596 78.688 104.908 73.2396C110.356 67.7912 110.356 58.9577 104.908 53.5093C84.5311 33.1326 51.4937 33.1326 31.117 53.5093Z" fill="#2563EB" fill-opacity="0.9"/>
<path d="M131.938 26.479C96.6328 -8.82633 39.3918 -8.82633 4.08628 26.479C-1.36209 31.9274 -1.36209 40.7608 4.08628 46.2092C9.53466 51.6576 18.3681 51.6576 23.8164 46.2092C48.2252 21.8004 87.7994 21.8004 112.208 46.2092C117.656 51.6576 126.49 51.6576 131.938 46.2092C137.386 40.7608 137.386 31.9274 131.938 26.479Z" fill="#2563EB" fill-opacity="0.9"/>
<path d="M77.8604 100.268C83.3088 94.8194 83.3088 85.9858 77.8604 80.5374C72.4121 75.0891 63.5786 75.0891 58.1302 80.5375C52.6819 85.9858 52.6819 94.8194 58.1302 100.268C63.5786 105.716 72.4121 105.716 77.8604 100.268Z" fill="#2563EB" fill-opacity="0.9"/>
<path d="M104.908 73.2396C110.357 67.7912 110.357 58.9578 104.908 53.5094C94.7197 43.3209 81.3662 38.2266 68.0127 38.2266V66.1292C74.2253 66.1292 80.4379 68.4992 85.178 73.2393C90.6267 78.688 99.4601 78.688 104.908 73.2396ZM131.939 46.2091C137.387 40.7607 137.387 31.9273 131.939 26.4789C114.286 8.8264 91.1495 0 68.013 0V27.9025C84.0087 27.9025 100.004 34.0047 112.209 46.2091C117.657 51.6575 126.49 51.6575 131.939 46.2091ZM81.9641 90.405C81.9641 82.6999 75.7178 76.4536 68.0127 76.4536V104.356C75.718 104.356 81.9643 98.1101 81.9641 90.405Z" fill="#2563EB"/>
</svg>
