<svg xmlns="http://www.w3.org/2000/svg" width="30" height="16" fill="none" viewBox="0 0 30 16">
  <g clip-path="url(#a)">
    <path fill="#2563EB" d="M22.06.06H7.94C3.561.06 0 3.623 0 8s3.562 7.94 7.94 7.94h14.12C26.439 15.94 30 12.378 30 8S26.438.06 22.06.06Zm0 14.122A6.189 6.189 0 0 1 15.88 8a6.189 6.189 0 0 1 6.182-6.182A6.189 6.189 0 0 1 28.242 8a6.189 6.189 0 0 1-6.181 6.182Z"/>
  </g>
  <defs>
    <clipPath id="a">
      <path fill="#fff" d="M0 0h30v16H0z"/>
    </clipPath>
  </defs>
</svg>
