<svg xmlns="http://www.w3.org/2000/svg" width="40" height="40" fill="none" viewBox="0 0 40 40">
  <rect width="40" height="40" fill="#14B8A6" fill-opacity=".1" rx="20"/>
  <path fill="#14B8A6" d="M20.056 9.25c1.602 0 2.881 0 3.884.135 1.037.14 1.89.435 2.565 1.11s.97 1.528 1.11 2.565c.135 1.003.135 2.282.135 3.884v6.112c0 1.602 0 2.881-.135 3.884-.14 1.037-.435 1.89-1.11 2.565s-1.528.97-2.565 1.11c-1.003.135-2.282.135-3.884.135h-.112c-1.602 0-2.881 0-3.884-.135-1.037-.14-1.89-.435-2.565-1.11s-.97-1.528-1.11-2.565c-.135-1.003-.135-2.282-.135-3.884v-6.112c0-1.602 0-2.881.135-3.884.14-1.037.435-1.89 1.11-2.565s1.528-.97 2.565-1.11c1.003-.135 2.282-.135 3.884-.135h.112Zm3.561 1.606c-.08.476-.152.894-.252 1.234-.119.405-.298.787-.641 1.092-.356.315-.765.448-1.204.508-.413.058-.923.058-1.518.058s-1.106 0-1.52-.058c-.438-.06-.847-.193-1.203-.508-.343-.305-.522-.687-.641-1.092-.1-.34-.174-.757-.253-1.234l-.125.015c-.87.117-1.354.335-1.704.685-.35.35-.568.834-.685 1.704-.12.891-.121 2.07-.121 3.74v6c0 1.67.001 2.849.121 3.74.117.87.335 1.354.685 1.704.35.35.834.568 1.704.685.891.12 2.07.121 3.74.121 1.67 0 2.849-.001 3.74-.121.87-.117 1.354-.335 1.704-.685.35-.35.568-.834.685-1.704.12-.891.121-2.07.121-3.74v-6c0-1.67-.001-2.849-.121-3.74-.117-.87-.335-1.354-.685-1.704-.35-.35-.834-.568-1.704-.685l-.123-.015ZM21 26.25a.75.75 0 0 1 0 1.5h-2a.75.75 0 0 1 0-1.5h2Zm-1-15.5c-.811 0-1.506 0-2.108.015.068.4.12.682.185.902.077.26.144.345.197.393.059.051.15.108.415.144.289.04.684.044 1.313.044.628 0 1.023-.004 1.313-.044.263-.036.355-.093.413-.144.054-.048.121-.132.198-.393.064-.22.116-.502.184-.902A94.976 94.976 0 0 0 20 10.75Z"/>
</svg>
