<svg width="13" height="13" viewBox="0 0 13 13" fill="none" xmlns="http://www.w3.org/2000/svg">
<path d="M9.67174 0.0161809C9.87612 0.0468331 10.1094 0.130372 10.3065 0.201728C11.4713 0.622959 12.3765 1.52814 12.7977 2.69294C12.8691 2.89007 12.9526 3.12332 12.9833 3.3277C13.0194 3.56899 12.9957 3.79629 12.9051 4.04841C12.7111 4.58862 12.2761 4.83019 11.7967 5.09626L10.8514 5.6236C10.5096 5.81428 10.2837 5.94116 10.1229 6.05231C9.9668 6.16028 9.92172 6.22055 9.90319 6.25642C9.89345 6.27529 9.86301 6.36772 9.87096 6.66657C9.87848 6.94898 9.91604 7.33242 9.96862 7.87751C10.0533 8.75599 9.90713 9.62637 9.40026 10.4371C9.31476 10.574 9.2069 10.7465 9.08678 10.8746C8.94478 11.0259 8.78083 11.133 8.57018 11.2183C8.35574 11.3052 8.16054 11.341 7.95006 11.3316C7.77105 11.3236 7.56512 11.2769 7.39342 11.2379C6.28379 10.9859 5.21709 10.4027 4.31237 9.62946L1.13756 12.8043C0.877201 13.0645 0.455475 13.0646 0.19518 12.8043C-0.0651147 12.544 -0.0650055 12.1222 0.19518 11.8619L3.36901 8.6861C2.59623 7.7816 2.01343 6.71524 1.76159 5.60602C1.72255 5.43442 1.67581 5.22842 1.66784 5.04938C1.65852 4.83892 1.69419 4.64368 1.78112 4.42927C1.86656 4.2186 1.97344 4.05465 2.12487 3.91267C2.25299 3.79258 2.42548 3.68558 2.56237 3.60017C3.36193 3.10064 4.22543 2.94592 5.09752 3.02302C5.65433 3.07227 6.04711 3.10683 6.33581 3.11286C6.47843 3.11584 6.65967 3.12869 6.75377 3.07966C6.78871 3.06143 6.84937 3.01637 6.95788 2.85895C7.06912 2.69755 7.19565 2.47079 7.38659 2.12849L7.90319 1.2027C8.16926 0.723364 8.41082 0.288396 8.95104 0.0943059C9.20316 0.00375931 9.43046 -0.0199656 9.67174 0.0161809Z" fill="white"/>
</svg>
