<svg width="13" height="13" viewBox="0 0 13 13" fill="none" xmlns="http://www.w3.org/2000/svg">
<path d="M9.57418 0.0167518C9.78457 0.0483071 9.99627 0.12494 10.1992 0.198392C10.2083 0.201693 10.2174 0.204874 10.2265 0.208158C11.4259 0.64176 12.3583 1.57329 12.792 2.77261C12.7952 2.78169 12.7984 2.79084 12.8017 2.79995C12.8751 3.00277 12.9518 3.21468 12.9834 3.42495C13.0206 3.67352 12.9956 3.90839 12.9023 4.16812C12.7025 4.72396 12.255 4.97244 11.7617 5.24624C11.7346 5.2613 11.707 5.27688 11.6796 5.29214L10.788 5.78921C10.4362 5.98544 10.2035 6.11524 10.038 6.22964C9.87735 6.34075 9.83158 6.40363 9.81246 6.44058C9.80245 6.46 9.7711 6.55506 9.77926 6.86245C9.787 7.1531 9.82476 7.54764 9.87887 8.10855C9.96613 9.01312 9.81593 9.90951 9.29391 10.7443C9.28955 10.7513 9.28562 10.7587 9.28121 10.7658C9.1932 10.9067 9.09527 11.0626 8.97164 11.1945C8.82541 11.3503 8.65636 11.4611 8.43942 11.549C8.21872 11.6383 8.01741 11.6749 7.80074 11.6652C7.61652 11.6569 7.42953 11.6136 7.25289 11.5734C7.24484 11.5716 7.23649 11.5703 7.22848 11.5685C6.02792 11.2959 4.87559 10.6475 3.915 9.79019L0.853478 12.8537C0.658285 13.0486 0.341663 13.0486 0.146447 12.8537C-0.0488156 12.6584 -0.0488156 12.3409 0.146447 12.1457L3.20797 9.08316C2.35141 8.12294 1.70409 6.97147 1.4316 5.77163C1.42978 5.76359 1.42758 5.75531 1.42574 5.74722C1.38554 5.57048 1.34314 5.38283 1.33492 5.19839C1.32528 4.98159 1.36159 4.78057 1.45113 4.55972C1.53902 4.34299 1.64894 4.17457 1.80465 4.02847C1.9366 3.90475 2.09335 3.80688 2.23434 3.7189C2.24139 3.7145 2.24885 3.70958 2.25582 3.70523C3.0788 3.19123 3.9676 3.03309 4.8652 3.11245C5.43823 3.16314 5.84244 3.19803 6.13961 3.20425C6.28642 3.20732 6.39143 3.20335 6.46676 3.19351C6.5032 3.18875 6.52864 3.18268 6.54586 3.17788C6.56032 3.17384 6.56766 3.17085 6.5693 3.17007C6.60523 3.15135 6.66845 3.10566 6.78024 2.94351C6.89475 2.77738 7.02512 2.54388 7.22164 2.19156L7.70797 1.32046C7.72322 1.29312 7.73785 1.26554 7.75289 1.23843C8.02682 0.744925 8.27582 0.296652 8.83199 0.09683C9.09157 0.0036237 9.32574 -0.0205087 9.57418 0.0167518ZM9.42574 1.00503C9.35372 0.994254 9.28647 0.996358 9.16988 1.03824C9.00379 1.09791 8.92793 1.18485 8.58102 1.80679L8.08297 2.69937C7.90116 3.02534 7.74817 3.30098 7.60348 3.51089C7.45306 3.72911 7.27827 3.92848 7.03219 4.05679C6.76767 4.19461 6.43924 4.21093 6.1191 4.20425C5.78403 4.19726 5.34579 4.15906 4.79684 4.1105L4.77731 4.10855C4.0624 4.04532 3.3971 4.17153 2.78512 4.55386C2.61415 4.66068 2.54182 4.70864 2.48922 4.75796C2.45397 4.79102 2.41983 4.83225 2.37789 4.9357C2.33754 5.03525 2.33124 5.09365 2.33395 5.15445C2.33778 5.23899 2.35837 5.33925 2.40621 5.54995C2.66495 6.68954 3.34058 7.82215 4.25875 8.74038C5.17692 9.65855 6.30964 10.3341 7.44918 10.5929C7.66027 10.6409 7.76097 10.6624 7.84567 10.6662C7.90657 10.6689 7.96492 10.6625 8.06442 10.6222C8.1677 10.5804 8.20905 10.5461 8.24215 10.5109C8.29154 10.4582 8.33927 10.3851 8.44625 10.214C8.83263 9.59608 8.95345 8.92829 8.88375 8.20523L8.8818 8.18472C8.83008 7.64865 8.78904 7.21956 8.78024 6.8898C8.77179 6.57284 8.78685 6.24811 8.92379 5.98257C9.05172 5.73453 9.25089 5.55865 9.46969 5.40738C9.6796 5.26226 9.95499 5.10929 10.2802 4.92788L11.1923 4.4191C11.814 4.07234 11.9012 3.99598 11.9609 3.83023C12.0028 3.7135 12.0049 3.6455 11.9941 3.57339C11.979 3.47274 11.9389 3.35404 11.8515 3.11245C11.5189 2.19257 10.8066 1.48116 9.88668 1.14859C9.64493 1.06119 9.52644 1.02014 9.42574 1.00503Z" fill="#E4E4E4"/>
</svg>
