<svg width="24" height="24" viewBox="0 0 24 24" fill="none" xmlns="http://www.w3.org/2000/svg">
<path d="M15.5 1.25C15.9142 1.25 16.25 1.58579 16.25 2V5.25H17C17.9665 5.25 18.75 6.0335 18.75 7V11.3691C18.75 11.9333 18.5764 12.4841 18.2529 12.9463L15.7119 16.5771C15.1974 17.3122 14.3562 17.7499 13.459 17.75H12.75V22C12.75 22.4142 12.4142 22.75 12 22.75C11.5858 22.75 11.25 22.4142 11.25 22V17.75H10.541C9.64376 17.7499 8.80263 17.3122 8.28809 16.5771L5.74707 12.9463C5.42361 12.4841 5.25 11.9333 5.25 11.3691V7C5.25 6.0335 6.0335 5.25 7 5.25H7.75V2C7.75 1.58579 8.08579 1.25 8.5 1.25C8.91421 1.25 9.25 1.58579 9.25 2V5.25H14.75V2C14.75 1.58579 15.0858 1.25 15.5 1.25ZM7 6.75C6.86193 6.75 6.75 6.86193 6.75 7V11.3691C6.75 11.6254 6.82873 11.8759 6.97559 12.0859L9.51758 15.7168C9.75144 16.0508 10.1333 16.2499 10.541 16.25H13.459C13.8667 16.2499 14.2486 16.0508 14.4824 15.7168L17.0244 12.0859C17.1713 11.8759 17.25 11.6254 17.25 11.3691V7C17.25 6.86193 17.1381 6.75 17 6.75H7ZM13 8.25C13.4142 8.25 13.75 8.58579 13.75 9C13.75 9.41421 13.4142 9.75 13 9.75H11C10.5858 9.75 10.25 9.41421 10.25 9C10.25 8.58579 10.5858 8.25 11 8.25H13Z" fill="#2563EB"/>
</svg>
