<svg width="80" height="80" viewBox="0 0 80 80" fill="none" xmlns="http://www.w3.org/2000/svg">
<path d="M78.4007 58.2888L50.3734 9.7432C45.7955 1.72362 34.2189 1.72362 29.6575 9.7432L1.61368 58.2888C-2.96423 66.3084 2.73345 76.2711 11.9716 76.2711H67.944C77.1821 76.2711 82.9786 66.2096 78.4007 58.2888ZM39.999 65.5015C37.5618 65.5015 35.5363 63.476 35.5363 61.0389C35.5363 58.6017 37.5618 56.5762 39.999 56.5762C42.4361 56.5762 44.4616 58.6017 44.3628 61.1541C44.4781 63.476 42.3373 65.5015 39.999 65.5015ZM44.0664 36.6508C43.8688 40.1089 43.6547 43.5506 43.4571 47.0087C43.3583 48.1285 43.3583 49.1495 43.3583 50.2528C43.2595 52.0807 41.8268 53.4968 39.999 53.4968C38.1711 53.4968 36.7549 52.1795 36.6396 50.3516C36.3432 44.9668 36.0303 39.6808 35.7339 34.296C35.6351 32.8798 35.5363 31.4471 35.4211 30.0309C35.4211 27.6926 36.7384 25.7659 38.8792 25.1566C41.0199 24.6461 43.1442 25.6671 44.0664 27.6926C44.3793 28.4007 44.4781 29.1088 44.4781 29.9321C44.3793 32.1881 44.1652 34.4277 44.0664 36.6508Z" fill="#FACC15"/>
</svg>
