<svg width="64" height="67" viewBox="0 0 64 67" fill="none" xmlns="http://www.w3.org/2000/svg">
<path d="M62.4948 39.9768C61.1186 37.8362 59.7431 35.7719 58.3669 33.632C58.0617 33.1735 58.0617 32.8676 58.3669 32.4091C59.7431 30.3455 61.0423 28.2812 62.4185 26.2176C64.0236 23.7718 63.1829 21.4016 60.4305 20.4083C58.138 19.5676 55.8448 18.6506 53.5516 17.8099C53.0931 17.6566 52.8635 17.3507 52.8635 16.8159C52.7872 14.2938 52.6346 11.771 52.4813 9.32522C52.3287 6.64982 50.2651 5.12103 47.666 5.80912C45.2202 6.42022 42.7744 7.10832 40.4042 7.79642C39.8694 7.94902 39.5642 7.79642 39.1813 7.41423C37.6525 5.42623 36.0474 3.51592 34.5193 1.60492C32.8372 -0.534975 30.2381 -0.534975 28.4804 1.60492C26.9516 3.51592 25.3465 5.42692 23.894 7.33792C23.5118 7.87273 23.1296 7.94902 22.5185 7.79642C20.149 7.10832 17.7795 6.49723 16.0974 6.03803C12.8109 5.27363 10.8236 6.57352 10.6703 9.32522C10.5177 11.8473 10.3651 14.3701 10.2881 16.9692C10.2881 17.504 10.0592 17.7329 9.60067 17.9625L2.49217 20.7142C0.0456661 21.7082 -0.718734 24.0777 0.733766 26.2939C2.10997 28.4345 3.48547 30.4981 4.86167 32.638C5.16687 33.0972 5.16687 33.4024 4.86167 33.9379C3.41605 36.0746 2.01435 38.2406 0.657466 40.4346C-0.641734 42.4989 0.198966 44.9447 2.49147 45.8617C4.86167 46.7787 7.30747 47.6957 9.67696 48.6134C10.2118 48.7667 10.3651 49.0719 10.3651 49.6074C10.4414 52.0532 10.7473 54.4234 10.7473 56.8685C10.7473 59.315 12.8872 61.5312 15.8685 60.6142C18.238 59.8498 20.6075 59.315 22.977 58.6262C23.4355 58.4736 23.7414 58.5506 24.0473 59.0091C25.6524 60.9964 27.1812 62.9074 28.7863 64.8947C30.544 67.0346 33.0668 67.0346 34.7482 64.8947C36.3533 62.9067 37.8821 60.9957 39.4872 59.0091C39.7931 58.6269 40.022 58.4736 40.5575 58.6269C43.0033 59.315 45.4491 59.9261 47.8956 60.6142C50.4177 61.3023 52.5576 59.7735 52.6346 57.1744C52.7872 54.6523 52.9398 52.1295 53.0168 49.5304C53.0168 48.9193 53.322 48.6904 53.7812 48.5371C56.1123 47.6787 58.4309 46.7868 60.7364 45.8617C63.1829 44.6388 63.9473 42.1937 62.4948 39.9768ZM44.2262 27.4398L28.9389 42.7278C28.5567 43.1093 28.0219 43.4152 27.4864 43.4915C27.3338 43.4915 27.1042 43.5685 26.9516 43.5685C26.2635 43.5685 25.4991 43.2626 24.9643 42.7271L18.6965 36.4593C18.1823 35.9409 17.8937 35.2403 17.8937 34.5102C17.8937 33.78 18.1823 33.0794 18.6965 32.561C19.2149 32.0468 19.9155 31.7583 20.6456 31.7583C21.3758 31.7583 22.0764 32.0468 22.5948 32.561L26.8753 36.8415L40.1753 23.5415C40.6937 23.0273 41.3943 22.7388 42.1244 22.7388C42.8546 22.7388 43.5552 23.0273 44.0736 23.5415C45.2965 24.6118 45.2965 26.3688 44.2262 27.4398Z" fill="#22C55E"/>
</svg>
