<svg width="70" height="64" viewBox="0 0 70 64" fill="none" xmlns="http://www.w3.org/2000/svg">
<path d="M68.6006 47.7403L44.0767 5.26285C40.071 -1.75428 29.9416 -1.75428 25.9503 5.26285L1.41197 47.7403C-2.59371 54.7574 2.39177 63.4748 10.4752 63.4748H59.451C67.5344 63.4748 72.6063 54.6709 68.6006 47.7403ZM34.9991 54.0514C32.8666 54.0514 31.0943 52.2791 31.0943 50.1466C31.0943 48.014 32.8666 46.2417 34.9991 46.2417C37.1316 46.2417 38.9039 48.014 38.8175 50.2474C38.9183 52.2791 37.0452 54.0514 34.9991 54.0514ZM38.5581 28.807C38.3852 31.8328 38.1979 34.8443 38.025 37.8702C37.9385 38.85 37.9385 39.7433 37.9385 40.7087C37.8521 42.3081 36.5985 43.5473 34.9991 43.5473C33.3997 43.5473 32.1605 42.3946 32.0597 40.7952C31.8003 36.0835 31.5266 31.4582 31.2672 26.7465C31.1807 25.5073 31.0943 24.2538 30.9934 23.0146C30.9934 20.9685 32.1461 19.2827 34.0193 18.7496C35.8924 18.3029 37.7512 19.1962 38.5581 20.9685C38.8319 21.5881 38.9183 22.2077 38.9183 22.9282C38.8319 24.9022 38.6446 26.8618 38.5581 28.807Z" fill="#FACC15"/>
</svg>
