<svg width="63" height="63" viewBox="0 0 63 63" fill="none" xmlns="http://www.w3.org/2000/svg">
<path d="M50.3125 37.917C57.1584 37.917 62.7088 43.4666 62.709 50.3125C62.709 57.1585 57.1585 62.709 50.3125 62.709C43.4666 62.7088 37.917 57.1584 37.917 50.3125C37.9172 43.4667 43.4667 37.9172 50.3125 37.917ZM43.3086 46.4023C42.6613 47.5592 42.292 48.8927 42.292 50.3125C42.292 54.7422 45.8829 58.3338 50.3125 58.334C51.7325 58.334 53.0667 57.9647 54.2236 57.3174L43.3086 46.4023ZM25.5215 32.084C30.1128 32.084 34.436 33.1579 38.1758 35.0508L36.2002 38.9541C33.0761 37.3728 29.4299 36.459 25.5215 36.459C14.4601 36.459 5.77357 43.6641 4.52832 52.5H31.3545V56.875H0V54.6875C0.000200192 41.9385 11.7103 32.084 25.5215 32.084ZM50.3125 42.292C48.8927 42.292 47.5592 42.6613 46.4023 43.3086L57.3174 54.2236C57.9647 53.0667 58.334 51.7325 58.334 50.3125C58.3338 45.8829 54.7422 42.292 50.3125 42.292ZM25.5215 0C33.1728 0.000175595 39.375 6.20316 39.375 13.8545C39.375 21.5058 33.1728 27.7088 25.5215 27.709C17.87 27.709 11.667 21.5059 11.667 13.8545C11.667 6.20305 17.87 0 25.5215 0ZM25.5215 4.375C20.2863 4.375 16.042 8.61929 16.042 13.8545C16.042 19.0897 20.2863 23.334 25.5215 23.334C30.7565 23.3338 35 19.0896 35 13.8545C35 8.6194 30.7565 4.37518 25.5215 4.375Z" fill="#EF4444"/>
</svg>
