<svg width="24" height="24" viewBox="0 0 24 24" fill="none" xmlns="http://www.w3.org/2000/svg">
<path d="M9 4.25C9.69034 4.25 10.25 4.80967 10.25 5.5C10.25 5.90892 10.0536 6.27195 9.75 6.5V13.25H20C21.5188 13.25 22.75 14.4812 22.75 16V20C22.75 21.5188 21.5188 22.75 20 22.75H4C2.48122 22.75 1.25 21.5188 1.25 20V16C1.25003 14.4812 2.48123 13.25 4 13.25H8.25V6.5C7.94643 6.27195 7.75 5.90892 7.75 5.5C7.75003 4.80967 8.30966 4.25 9 4.25ZM4 14.75C3.30966 14.75 2.75003 15.3097 2.75 16V20C2.75 20.6904 3.30964 21.25 4 21.25H20C20.6904 21.25 21.25 20.6904 21.25 20V16C21.25 15.3097 20.6903 14.75 20 14.75H4ZM6.00879 17C6.56106 17 7.00876 17.4477 7.00879 18C7.00879 18.5523 6.56107 19 6.00879 19H6C5.44772 19 5 18.5523 5 18C5.00003 17.4477 5.44773 17 6 17H6.00879ZM10.0049 17C10.557 17.0002 11.0049 17.4479 11.0049 18C11.0049 18.5522 10.557 18.9998 10.0049 19H9.99512C9.44302 18.9998 8.99512 18.5522 8.99512 18C8.99514 17.4479 9.44303 17.0002 9.99512 17H10.0049ZM14 17C14.5523 17 15 17.4477 15 18C15 18.5523 14.5523 19 14 19H13.9912C13.4389 19 12.9912 18.5523 12.9912 18C12.9912 17.4477 13.4389 17 13.9912 17H14ZM2.90527 1.52539C3.16724 1.20462 3.64012 1.15707 3.96094 1.41895C4.28176 1.68095 4.32939 2.15379 4.06738 2.47461C3.22383 3.50758 2.75 4.71993 2.75 6.00586C2.7501 7.28761 3.22111 8.49565 4.05957 9.52637C4.32097 9.84768 4.27249 10.3206 3.95117 10.582C3.62986 10.8434 3.1569 10.7949 2.89551 10.4736C1.86503 9.20694 1.2501 7.67109 1.25 6.00586C1.25 4.3352 1.86888 2.79445 2.90527 1.52539ZM5.36328 3.42871C5.58241 3.07731 6.04504 2.97046 6.39648 3.18945C6.74792 3.4086 6.8558 3.87119 6.63672 4.22266C6.29587 4.76926 6.11035 5.37368 6.11035 6.00586C6.11043 6.63475 6.29338 7.23599 6.63086 7.78027C6.84914 8.13231 6.74071 8.59422 6.38867 8.8125C6.03666 9.0306 5.57468 8.92228 5.35645 8.57031C4.88354 7.80756 4.61043 6.93543 4.61035 6.00586C4.61035 5.07136 4.88587 4.1943 5.36328 3.42871Z" fill="#2563EB"/>
</svg>
