<svg width="24" height="24" viewBox="0 0 24 24" fill="none" xmlns="http://www.w3.org/2000/svg">
<path d="M17 1.25C18.5188 1.25 19.75 2.48122 19.75 4V20C19.75 21.5188 18.5188 22.75 17 22.75H7C5.48122 22.75 4.25 21.5188 4.25 20V4C4.25 2.48122 5.48122 1.25 7 1.25H17ZM7 2.75C6.30964 2.75 5.75 3.30964 5.75 4V20C5.75 20.6904 6.30964 21.25 7 21.25H17C17.6904 21.25 18.25 20.6904 18.25 20V4C18.25 3.30964 17.6904 2.75 17 2.75H15.542L14.9404 4.55664C14.7022 5.27094 14.0332 5.75273 13.2803 5.75293H10.7217C9.96861 5.75293 9.29987 5.27095 9.06152 4.55664L8.45898 2.75H7ZM13 18.25C13.4142 18.25 13.75 18.5858 13.75 19C13.75 19.4142 13.4142 19.75 13 19.75H11C10.5858 19.75 10.25 19.4142 10.25 19C10.25 18.5858 10.5858 18.25 11 18.25H13ZM10.4844 4.08203C10.5185 4.18399 10.6142 4.25293 10.7217 4.25293H13.2803C13.3876 4.25274 13.4825 4.18382 13.5166 4.08203L13.9609 2.75H10.04L10.4844 4.08203Z" fill="#2563EB"/>
</svg>
