<svg width="24" height="24" viewBox="0 0 24 24" fill="none" xmlns="http://www.w3.org/2000/svg">
<path d="M15 21.25C15.4142 21.25 15.75 21.5858 15.75 22C15.75 22.4142 15.4142 22.75 15 22.75H9C8.58579 22.75 8.25 22.4142 8.25 22C8.25 21.5858 8.58579 21.25 9 21.25H15ZM17.5 3.75C19.0188 3.75 20.25 4.98122 20.25 6.5V17.5C20.25 19.0188 19.0188 20.25 17.5 20.25H6.5C4.98122 20.25 3.75 19.0188 3.75 17.5V6.5C3.75 4.98122 4.98122 3.75 6.5 3.75H17.5ZM6.5 5.25C5.80964 5.25 5.25 5.80964 5.25 6.5V17.5C5.25 18.1904 5.80964 18.75 6.5 18.75H17.5C18.1904 18.75 18.75 18.1904 18.75 17.5V6.5C18.75 5.80964 18.1904 5.25 17.5 5.25H6.5ZM12.3916 8.45508C12.9808 8.21445 13.8133 8.10667 14.7402 8.58008C15.9513 9.19868 16.4952 10.6486 16.1416 12.0664C15.7803 13.5148 14.5259 14.8948 12.251 15.7061C12.0881 15.7641 11.91 15.7641 11.7471 15.7061C9.47214 14.8948 8.21778 13.5148 7.85645 12.0664C7.50283 10.6486 8.04673 9.19869 9.25781 8.58008C10.1848 8.10671 11.0173 8.21443 11.6064 8.45508C11.7539 8.51532 11.8852 8.58371 11.999 8.65137C12.1128 8.58371 12.2441 8.51532 12.3916 8.45508ZM14.0576 9.91602C13.588 9.67628 13.2205 9.73698 12.959 9.84375C12.8197 9.90066 12.707 9.97407 12.6299 10.0322C12.5922 10.0607 12.5643 10.0836 12.5488 10.0977C12.5421 10.1038 12.5379 10.1086 12.5361 10.1104C12.3951 10.2549 12.2012 10.3369 11.999 10.3369C11.7968 10.3369 11.603 10.2549 11.4619 10.1104C11.4602 10.1086 11.456 10.1039 11.4492 10.0977C11.4338 10.0836 11.4059 10.0607 11.3682 10.0322C11.2911 9.97406 11.1784 9.90068 11.0391 9.84375C10.7774 9.73691 10.4093 9.67602 9.93945 9.91602C9.45855 10.1618 9.09556 10.837 9.31152 11.7031C9.51067 12.5016 10.2428 13.5081 11.999 14.1992C13.7552 13.5081 14.4874 12.5016 14.6865 11.7031C14.9025 10.8369 14.5387 10.1617 14.0576 9.91602ZM15 1.25C15.4142 1.25 15.75 1.58579 15.75 2C15.75 2.41421 15.4142 2.75 15 2.75H9C8.58579 2.75 8.25 2.41421 8.25 2C8.25 1.58579 8.58579 1.25 9 1.25H15Z" fill="#2563EB"/>
</svg>
