<svg width="16" height="16" viewBox="0 0 16 16" fill="none" xmlns="http://www.w3.org/2000/svg">
<path fill-rule="evenodd" clip-rule="evenodd" d="M9.36075 0.841397C9.41422 0.842523 9.45433 0.890496 9.44624 0.943361C9.38021 1.33947 9.33707 1.59279 9.28248 1.7788C9.23145 1.95269 9.18608 2.0089 9.15069 2.0403C9.11174 2.07485 9.05111 2.11249 8.87493 2.13684C8.68202 2.1635 8.41868 2.16629 7.99931 2.16629C7.57994 2.16629 7.3166 2.1635 7.1237 2.13684C6.94752 2.11249 6.88688 2.07485 6.84794 2.0403C6.81255 2.0089 6.76718 1.95269 6.71615 1.7788C6.66165 1.5931 6.61856 1.34031 6.55272 0.945334C6.54488 0.891267 6.586 0.842487 6.64062 0.841343C7.03886 0.832999 7.47839 0.833003 7.96215 0.833008H7.96218H7.96223H8.03657H8.03661H8.03665C8.52145 0.833003 8.96183 0.832999 9.36075 0.841397ZM5.37275 0.923044C5.46392 0.910787 5.54688 0.975325 5.56008 1.06636L5.56411 1.09416L5.56574 1.10465L5.57042 1.13275C5.63069 1.49447 5.68311 1.80911 5.7569 2.06055C5.83631 2.3311 5.95538 2.58514 6.18456 2.78848C6.42161 2.9988 6.69463 3.08715 6.98708 3.12757C7.2628 3.16568 7.60307 3.16644 7.9996 3.16644C8.39613 3.16644 8.7364 3.16568 9.01212 3.12757C9.30457 3.08715 9.57759 2.9988 9.81464 2.78848C10.0438 2.58514 10.1629 2.3311 10.2423 2.06055C10.3161 1.80911 10.3685 1.49447 10.4288 1.13275L10.4335 1.10466L10.4396 1.06493C10.4534 0.97458 10.536 0.910865 10.6266 0.923044C11.3174 1.01593 11.8864 1.21293 12.3365 1.66302C12.7866 2.11312 12.9836 2.68206 13.0765 3.3729C13.1664 4.04163 13.1664 4.89427 13.1663 5.96266V10.037C13.1664 11.1054 13.1664 11.958 13.0765 12.6267C12.9836 13.3176 12.7866 13.8865 12.3365 14.3366C11.8864 14.7867 11.3174 14.9837 10.6266 15.0766C9.95788 15.1665 9.10523 15.1665 8.03684 15.1665H7.96252C6.89412 15.1665 6.04148 15.1665 5.37275 15.0766C4.68191 14.9837 4.11297 14.7867 3.66287 14.3366C3.21278 13.8865 3.01578 13.3176 2.9229 12.6267C2.83299 11.958 2.833 11.1054 2.83301 10.037V10.037V10.037V5.96265V5.96264V5.96263C2.833 4.89425 2.83299 4.04162 2.9229 3.3729C3.01578 2.68206 3.21278 2.11312 3.66287 1.66302C4.11297 1.21293 4.68191 1.01593 5.37275 0.923044ZM6.83301 13.333C6.83301 13.0569 7.05687 12.833 7.33301 12.833H8.66634C8.94248 12.833 9.16634 13.0569 9.16634 13.333C9.16634 13.6091 8.94248 13.833 8.66634 13.833H7.33301C7.05687 13.833 6.83301 13.6091 6.83301 13.333Z" fill="#2563EB"/>
</svg>
