<svg width="24" height="24" viewBox="0 0 24 24" fill="none" xmlns="http://www.w3.org/2000/svg">
<path d="M17.5 1.25C19.5711 1.25 21.25 2.92893 21.25 5L21.25 19C21.25 21.0711 19.5711 22.75 17.5 22.75L6.5 22.75C4.42893 22.75 2.75 21.0711 2.75 19L2.75 5C2.75 2.92893 4.42893 1.25 6.5 1.25L17.5 1.25ZM6.5 2.75C5.25736 2.75 4.25 3.75736 4.25 5L4.25 19C4.25 20.2426 5.25736 21.25 6.5 21.25L17.5 21.25C18.7426 21.25 19.75 20.2426 19.75 19L19.75 5C19.75 3.75736 18.7426 2.75 17.5 2.75L6.5 2.75ZM12.0098 17.5C12.5621 17.5 13.0098 17.9477 13.0098 18.5C13.0098 19.0523 12.5621 19.5 12.0098 19.5H12C11.4477 19.5 11 19.0523 11 18.5C11 17.9477 11.4477 17.5 12 17.5H12.0098ZM14 4.25C14.4142 4.25 14.75 4.58579 14.75 5C14.75 5.41421 14.4142 5.75 14 5.75L10 5.75C9.58579 5.75 9.25 5.41421 9.25 5C9.25 4.58579 9.58579 4.25 10 4.25L14 4.25Z" fill="#2563EB"/>
</svg>
