<svg width="24" height="24" viewBox="0 0 24 24" fill="none" xmlns="http://www.w3.org/2000/svg">
<path d="M12 20.25C13.5827 20.25 15.0714 20.6453 16.3564 21.3398C16.7208 21.5368 16.8569 21.9921 16.6602 22.3564C16.4632 22.7208 16.0079 22.857 15.6436 22.6602C14.5753 22.0828 13.3314 21.75 12 21.75C10.6686 21.75 9.42461 22.0828 8.35645 22.6602C7.99214 22.8568 7.53772 22.7207 7.34082 22.3564C7.14387 21.9921 7.27916 21.5368 7.64355 21.3398C8.92866 20.6453 10.4173 20.25 12 20.25ZM19 1.25C21.0711 1.25 22.75 2.92893 22.75 5V15C22.75 17.0711 21.0711 18.75 19 18.75H5C2.92893 18.75 1.25 17.0711 1.25 15V5C1.25 2.92893 2.92893 1.25 5 1.25H19ZM5 2.75C3.75736 2.75 2.75 3.75736 2.75 5V15C2.75 16.2426 3.75736 17.25 5 17.25H19C20.2426 17.25 21.25 16.2426 21.25 15V5C21.25 3.75736 20.2426 2.75 19 2.75H5Z" fill="#2563EB"/>
</svg>
