<svg width="22" height="22" viewBox="0 0 22 22" fill="none" xmlns="http://www.w3.org/2000/svg">
<path d="M10.75 0C16.6871 0 21.5 4.81294 21.5 10.75C21.5 16.6871 16.6871 21.5 10.75 21.5C4.81294 21.5 0 16.6871 0 10.75C0 4.81294 4.81294 0 10.75 0ZM15.3906 6.98145C14.9664 6.62791 14.335 6.68518 13.9814 7.10938L9.68262 12.2686L7.45703 10.043C7.06651 9.65244 6.43349 9.65244 6.04297 10.043C5.65245 10.4335 5.65245 11.0665 6.04297 11.457L9.04297 14.457C9.24154 14.6556 9.51439 14.7616 9.79492 14.749C10.0756 14.7363 10.3387 14.6064 10.5186 14.3906L15.5186 8.39062C15.8721 7.96638 15.8148 7.33502 15.3906 6.98145Z" fill="#22C55E"/>
</svg>
