<svg xmlns="http://www.w3.org/2000/svg" width="40" height="40" fill="none" viewBox="0 0 40 40">
  <rect width="40" height="40" fill="#2563EB" fill-opacity=".1" rx="20"/>
  <path fill="#2563EB" d="M20 9.25c5.937 0 10.75 4.813 10.75 10.75S25.937 30.75 20 30.75 9.25 25.937 9.25 20 14.063 9.25 20 9.25Zm0 1.5a9.25 9.25 0 1 0 0 18.5 9.25 9.25 0 0 0 0-18.5Zm3.4 11.8a.75.75 0 0 1 1.2.9 5.742 5.742 0 0 1-4.6 2.3 5.742 5.742 0 0 1-4.6-2.3.75.75 0 0 1 1.2-.9 4.242 4.242 0 0 0 3.4 1.7 4.24 4.24 0 0 0 3.4-1.7Zm-6.88-7.626a.75.75 0 0 1 1.056.096l-.564.47.565-.47.001.003.004.003.01.014.038.046a8.136 8.136 0 0 1 .506.717c.138.22.285.483.4.758.111.267.214.597.214.939a.75.75 0 0 1-1.297.513c-.206-.22-.554-.363-.953-.363-.4 0-.748.143-.953.363a.75.75 0 1 1-1.094-1.026c.545-.58 1.321-.837 2.047-.837h.057a5.555 5.555 0 0 0-.1-.13.333.333 0 0 1-.027-.033l-.006-.007a.751.751 0 0 1 .096-1.056Zm5.904.096a.75.75 0 0 1 1.152.96l-.006.007-.026.033c-.024.03-.059.074-.1.13h.056c.726 0 1.503.257 2.047.837a.75.75 0 1 1-1.094 1.026c-.206-.22-.554-.363-.953-.363-.4 0-.747.143-.953.363a.75.75 0 0 1-1.297-.513c0-.342.103-.672.214-.939.115-.275.262-.538.4-.758a8.018 8.018 0 0 1 .506-.717l.037-.046.011-.014.004-.003v-.002c.001 0 .007.003.566.47l-.564-.471Z"/>
</svg>
