<svg width="24" height="24" viewBox="0 0 24 24" fill="none" xmlns="http://www.w3.org/2000/svg">
<path d="M17.0065 20.9999C17.5587 20.9999 18.0065 21.4476 18.0065 21.9999C18.0065 22.5521 17.5587 22.9999 17.0065 22.9999H16.9996C16.4475 22.9996 15.9996 22.552 15.9996 21.9999C15.9996 21.4478 16.4476 21.0001 16.9996 20.9999H17.0065ZM9.83264 2.33093C10.8186 1.57713 12.1876 1.57714 13.1735 2.33093L19.4938 7.16492C20.3077 7.78749 20.7085 8.81159 20.5328 9.82117L20.1315 12.1259C20.0605 12.5339 19.6723 12.8071 19.2643 12.7362C18.8562 12.6652 18.5829 12.2771 18.6539 11.869L19.0543 9.56433C19.1342 9.10543 18.9526 8.63931 18.5826 8.35632L12.2623 3.52234C11.8142 3.17982 11.1919 3.17974 10.7438 3.52234L4.42053 8.3573C4.05058 8.64028 3.86804 9.10544 3.94788 9.56433L5.45276 18.2118C5.55691 18.8105 6.07655 19.2479 6.6842 19.2479H11.0026C11.4166 19.2481 11.7526 19.5838 11.7526 19.9979C11.7525 20.4119 11.4166 20.7477 11.0026 20.7479H6.6842C5.34731 20.7479 4.20436 19.7857 3.97522 18.4686L2.47034 9.82117C2.29473 8.81142 2.69519 7.78741 3.5094 7.16492L9.83264 2.33093ZM16.9948 17.6102C17.9291 17.6102 18.8054 17.8859 19.5709 18.3632C19.9222 18.5822 20.0299 19.0449 19.8112 19.3964C19.5921 19.7477 19.1294 19.8554 18.778 19.6366C18.2314 19.2958 17.6269 19.1102 16.9948 19.1102C16.3659 19.1102 15.7646 19.2933 15.2203 19.6307C14.8683 19.849 14.4054 19.7406 14.1871 19.3885C13.9693 19.0366 14.0776 18.5746 14.4293 18.3563C15.1922 17.8833 16.065 17.6102 16.9948 17.6102ZM16.9948 14.2499C18.6652 14.2499 20.2053 14.8689 21.4742 15.9052C21.7951 16.1672 21.8427 16.64 21.5807 16.9608C21.3187 17.2815 20.8468 17.3291 20.526 17.0673C19.493 16.2236 18.2807 15.7499 16.9948 15.7499C15.7128 15.7499 14.5041 16.2208 13.4733 17.0594C13.152 17.3207 12.68 17.2722 12.4186 16.951C12.1572 16.6297 12.2057 16.1568 12.527 15.8954C13.7937 14.865 15.3295 14.2499 16.9948 14.2499Z" fill="#2563EB"/>
</svg>
